<?xml version="1.0" ?><svg xmlns="http://www.w3.org/2000/svg" xmlns:xlink="http://www.w3.org/1999/xlink" version="1.1" viewBox="0 0 512 512" style="enable-background:new 0 0 512 512;" xml:space="preserve"><style type="text/css">
	.st0{fill:#231A15;}
	.st1{fill:#FFE000;}
	.st2{fill:#BCA100;}
	.st3{fill:#FC0000;}
	.st4{fill:#AA0000;}
	.st5{fill:#F94343;}
	.st6{fill:#FFFFFF;}
	.st7{fill:#A58E07;}
	.st8{opacity:0.44;}
	.st9{fill:#756204;}
	.st10{opacity:0.64;}
	.st11{opacity:0.38;}
	.st12{fill:#5D5004;}
	.st13{fill:#B7A100;}
	.st14{fill:#1D4DFC;}
	.st15{fill:#143CAF;}
	.st16{opacity:0.59;}
	.st17{opacity:0.52;}
	.st18{fill:#FF7F1F;}
	.st19{fill:#C4570C;}
	.st20{fill:#B29904;}
	.st21{fill:#87720A;}
	.st22{fill:#DDDDDD;}
	.st23{opacity:0.51;}
	.st24{fill:#878787;}
	.st25{fill:#727272;}
	.st26{opacity:0.33;}
	.st27{opacity:0.46;}
	.st28{fill:#25CBF2;}
	.st29{fill:#0A8FA5;}
	.st30{opacity:0.58;}
	.st31{fill:#04889E;}
	.st32{fill:#035A63;}
	.st33{opacity:0.65;}
	.st34{opacity:0.39;}
	.st35{fill:#AB0000;}
	.st36{fill:#1987A1;}
	.st37{fill:#3F1F0A;}
	.st38{fill:#4DEEFF;}
	.st39{fill:#21B9C1;}
	.st40{fill:#BBF9FF;}
	.st41{fill:#64ACAF;}
	.st42{fill:#089FB7;}
	.st43{opacity:0.47;}
	.st44{opacity:0.42;}
	.st45{fill:#DBF7FC;}
	.st46{fill:#B2E7ED;}
	.st47{fill:#0FA2BA;}
	.st48{opacity:0.54;}
	.st49{fill:#8E7716;}
	.st50{fill:#191401;}
	.st51{fill:#382E02;}
	.st52{fill:#605106;}
	.st53{fill:#AFACA0;}
	.st54{fill:#BC0404;}
	.st55{fill:#750000;}
	.st56{fill:#A08B0D;}
	.st57{fill:#5B4C05;}
	.st58{opacity:0.4;}
	.st59{opacity:0.5;}
	.st60{fill:#FF8383;}
	.st61{fill:#FFF0A6;}
	.st62{fill:#E2C227;}
	.st63{fill:#AA9205;}
	.st64{fill:#FFEA71;}
	.st65{opacity:0.22;}
	.st66{fill:#B19B00;}
	.st67{fill:#1989A4;}
	.st68{fill:#13A0B7;}
	.st69{fill:#C4A805;}
	.st70{fill:#FFF3A9;}
	.st71{fill:#846E03;}
	.st72{fill:#2D2502;}
	.st73{opacity:0.36;}
	.st74{fill:#4DD307;}
	.st75{fill:#328402;}
	.st76{fill:#97FF5A;}
	.st77{fill:#7A6500;}
	.st78{fill:#246001;}
	.st79{fill:#359100;}
	.st80{fill:#968022;}
	.st81{fill:#4F420B;}
	.st82{fill:#FFED83;}
	.st83{fill:#BAA335;}
	.st84{fill:#8D0991;}
	.st85{fill:#4B044F;}
	.st86{fill:#CE15CE;}
	.st87{fill:#897502;}
	.st88{fill:#493D01;}
	.st89{fill:#C9C9C9;}
	.st90{fill:#2D280E;}
	.st91{fill:#378C06;}
	.st92{fill:#183A03;}
	.st93{fill:#94FF55;}
	.st94{fill:#2E7F04;}
	.st95{fill:#63AB39;}
	.st96{fill:#AA5F04;}
	.st97{fill:#633502;}
	.st98{fill:#EF9014;}
	.st99{fill:#A05A07;}
	.st100{fill:#05616B;}
	.st101{fill:#033335;}
	.st102{fill:#0E94AA;}
	.st103{fill:#035D66;}
	.st104{opacity:0.27;}
	.st105{opacity:0.43;}
	.st106{fill:#FFF203;}
	.st107{fill:#FFA300;}
	.st108{fill:#2B3030;}
	.st109{opacity:0.28;}
	.st110{fill:#FCD17A;}
	.st111{fill:#AF853A;}
	.st112{opacity:0.31;}
	.st113{fill:#B641FF;}
	.st114{fill:#700FBC;}
	.st115{fill:#F2D0B1;}
	.st116{fill:#AF835F;}
	.st117{fill:#C17540;}
	.st118{fill:#F2BA94;}
	.st119{fill:#592909;}
	.st120{fill:#2B1204;}
	.st121{fill:#894818;}
	.st122{fill:#512609;}
	.st123{fill:#FF7F15;}
	.st124{fill:#A04A0A;}
	.st125{fill:#B7865E;}
	.st126{fill:#70350E;}
	.st127{fill:#3A1805;}
	.st128{fill:#C1521B;}
	.st129{fill:#FFC7AE;}
	.st130{fill:#FF717F;}
	.st131{fill:#6E2F0F;}
	.st132{fill:#AC8675;}
	.st133{opacity:0.25;}
	.st134{opacity:0.32;}
	.st135{fill:#FFFCC5;}
	.st136{fill:#D1CA78;}
	.st137{fill:#D37733;}
	.st138{fill:#A04F18;}
	.st139{fill:#0ABFBA;}
	.st140{fill:#057F79;}
	.st141{fill:#15F9F9;}
	.st142{fill:#09B2AD;}
	.st143{fill:#B2B2B2;}
	.st144{fill:#FFF755;}
	.st145{fill:#BCB121;}
	.st146{fill:#F90368;}
	.st147{opacity:0.49;}
	.st148{fill:#B50857;}
	.st149{fill:#FF76B4;}
	.st150{fill:#F23091;}
	.st151{fill:#FFF800;}
	.st152{fill:#C9BF05;}
	.st153{fill:#FF8500;}
	.st154{fill:#A35507;}
	.st155{fill:#AA6E50;}
	.st156{fill:#723C25;}
	.st157{fill:#EAD4B9;}
	.st158{fill:#AA8D6F;}
	.st159{fill:#B7A8A5;}
	.st160{fill:#84726F;}
	.st161{fill:#77645F;}
	.st162{fill:#51403C;}
	.st163{fill:#EABBA7;}
	.st164{fill:#BC7F69;}
	.st165{fill:#7C5039;}
	.st166{fill:#442619;}
	.st167{fill:#B7AE04;}
	.st168{fill:#BAB108;}
	.st169{fill:#7A7105;}
	.st170{fill:#352B23;}
	.st171{fill:#050403;}
	.st172{fill:#706255;}
	.st173{fill:#44382E;}
	.st174{fill:#634319;}
	.st175{fill:#35210A;}
	.st176{fill:#2D1C08;}
	.st177{fill:#0A0601;}
	.st178{fill:#9E7443;}
	.st179{fill:#704D2A;}
	.st180{fill:#D8A73A;}
	.st181{fill:#A0741C;}
	.st182{fill:#3F2F28;}
	.st183{fill:#211410;}
	.st184{fill:#FF326C;}
	.st185{fill:#BC0749;}
	.st186{fill:#68390E;}
	.st187{fill:#A5632D;}
	.st188{fill:#3D1E05;}
	.st189{fill:#331A06;}
	.st190{fill:#110801;}
	.st191{fill:#160A02;}
	.st192{fill:#663514;}
	.st193{opacity:0.29;}
	.st194{fill:#FC001F;}
	.st195{fill:#AF021F;}
	.st196{fill:#C48622;}
	.st197{fill:#8C5910;}
	.st198{fill:#846D64;}
	.st199{fill:#513B35;}
	.st200{fill:#5B4842;}
	.st201{fill:#332522;}
	.st202{fill:#47332C;}
	.st203{fill:#543E38;}
	.st204{fill:#1E1412;}
	.st205{fill:#604C43;}
	.st206{fill:#D3896C;}
	.st207{fill:#FF001F;}
	.st208{fill:#AF0824;}
	.st209{fill:#A37462;}
	.st210{fill:#5E3E34;}
	.st211{fill:#874A38;}
	.st212{fill:#4C2218;}
	.st213{fill:#5B2B20;}
	.st214{fill:#210C09;}
	.st215{fill:#99001A;}
	.st216{fill:#A08A07;}
	.st217{fill:#A08904;}
	.st218{fill:#5B4C02;}
	.st219{fill:#CECAB7;}
	.st220{fill:#727068;}
	.st221{fill:#42403A;}
	.st222{fill:#B2B0A6;}
	.st223{fill:#726F62;}
	.st224{fill:#6B4F45;}
	.st225{fill:#3A261F;}
	.st226{fill:#777468;}
	.st227{fill:#474436;}
	.st228{fill:#B78B7D;}
	.st229{fill:#845A4E;}
	.st230{fill:#3A372D;}
	.st231{fill:#43CFFF;}
	.st232{fill:#13A0BC;}
</style><g id="_x31_5"><g><path class="st0" d="M107.01,421.86c-20.04,0-38.46-6.83-48.15-18.45c-10.31-7.93-16.81-24.61-17.92-46.18    c-0.79-15.47,6.59-37.58,14.41-60.98c6.04-18.07,12.28-36.77,13.93-50.54c1.49-12.48-0.49-18.65-3.02-22.16    c-6.73,2.71-12.35,3.64-17.07,2.83c-7.13-1.22-19.21-6.33-23.74-13.87c-2.04-3.4-2.53-7.2-1.38-10.69    c1.9-5.76,6.81-8.7,18.82-10.46c1.32-6.95,5.63-12.69,7.76-15.52l1.4-1.87c0.79-16.05,2.09-23.56,4.18-27.65    c1.4-7.45,6.47-26.1,22.48-30.1c1.21-0.3,2.91-0.73,15.65-1.31c-0.25-7.07,1.33-12.24,4.75-15.45c3.34-3.14,7.91-4.15,12.53-2.78    c6.61,1.97,18.1,9.81,27.49,16.8c18.54-0.46,41.55-0.95,68.47-1.44l8.27-0.15c0.03,0,0.06,0,0.1,0    c81.3-1.46,175.06-2.63,201.25-2.95c0.41-0.78,0.85-1.5,1.33-2.16c0.13-3.46,1.07-7.6,4.08-11.09c2.11-2.44,6.96-6.39,15.78-5.41    c11.71,1.3,19.73,8.99,23.52,13.53c2.24,0.91,4.8,2.49,6.42,5.27c12.01,0.61,15.55,2.46,18.12,5.92c1.89,2.54,2.54,5.7,1.81,8.74    c-0.1,0.68-0.28,2.55-0.43,4.07c-1.55,15.99-2.93,25.94-11.39,28.81c-1.31,0.45-2.96,0.79-5.73,0.97l-0.95,10.99    c-0.12,1.39-0.52,2.69-1.14,3.85l-1.49,10.79c-0.65,4.68-4.48,8.27-9.2,8.61l-16.6,1.18c-2.44,3.59-5.42,6.35-8.9,8.24    c-4.62,2.51-12.74,3.25-42.78,5.09c-19.56,1.2-55.92,3.42-62.43,6.96l-1.12,0.76c-11.17,7.61-20.82,14.18-23.69,26.86    c-1.34,5.94-0.8,9.52-0.27,12.98c0.77,5.03,2.05,13.45-7.77,20.03c-10.49,7.03-28.55,11.09-55.21,12.42    c-13.15,0.66-22.25,0.04-29.55-0.46c-6.76-0.46-11.22-0.77-15.45,0.21c-0.55,0.13-1.09,0.25-1.61,0.36    c-4.63,1.04-4.97,1.2-6.21,2.93c-3.7,5.18-7.48,18.66-10.01,28.34c-8.05,30.91-7.63,36.22-7.26,40.91c0.07,0.9,0.14,1.8,0.18,2.77    c0.06,1.3,0.69,3.92,1.3,6.44c1.83,7.6,4.34,18,1.38,28.8c-4.59,16.74-21.45,19.4-40.99,22.48c-2.83,0.45-5.8,0.91-8.89,1.44    C117.01,421.45,111.96,421.86,107.01,421.86z M68.18,201.68c2.11,0,4.2,0.67,5.96,1.97c12.9,9.58,17.53,23.29,15,44.45    c-1.89,15.8-8.46,35.47-14.82,54.5c-6.89,20.61-14.01,41.93-13.41,53.62c0.9,17.57,5.92,28.53,10.49,31.6    c0.92,0.62,1.73,1.38,2.39,2.26c6.1,8.04,24.55,14.28,44.87,10.8c3.18-0.55,6.24-1.03,9.15-1.49c12.69-2,23.64-3.73,24.81-8.01    c1.6-5.83-0.07-12.74-1.53-18.83c-0.87-3.6-1.69-7.01-1.83-10.22c-0.03-0.74-0.09-1.42-0.14-2.1c-0.64-8.07-0.44-15.73,7.85-47.53    c9.32-35.75,15.34-42.19,31.2-45.74c0.47-0.11,0.96-0.22,1.46-0.33c0.44-0.1,0.87-0.19,1.3-0.28c-0.84-0.75-1.64-1.56-2.39-2.43    c-5.73-6.62-7.77-15.61-6.07-26.72c2.77-18.05,12.97-30.78,18.8-36.76c1.72-1.77,4.04-2.84,6.5-3c1.65-0.11,3.35-0.2,5.08-0.27    c3.61-0.16,6.86,1.63,8.73,4.45c1.78-2.81,4.92-4.65,8.45-4.65c0.04,0,0.08,0,0.12,0c5.13,0.06,9.77,0.2,13.29,0.33    c0.15-0.13,0.31-0.25,0.47-0.37c2.36-1.71,5.34-2.3,8.17-1.64l20.38,4.83c1.28,0.3,2.49,0.86,3.55,1.63    c3.61,2.61,9.17,10.47,12.59,20.28c3.81-6.41,8.8-11.43,14.12-15.75c-1.47-0.52-2.82-1.38-3.94-2.57    c-2.96-3.14-3.57-7.81-1.52-11.61c0.16-0.3,0.33-0.6,0.51-0.91c2.54-4.25,7.8-6,12.38-4.12c3.87,1.59,6.27,5.37,6.2,9.41    c8.4-5.42,28.32-7.44,72.05-10.11c13.63-0.83,30.48-1.87,34.84-2.95c0.94-0.69,1.91-2.05,2.73-3.83c0.36-0.78,0.81-1.5,1.34-2.14    c1.68-2.27,4.31-3.81,7.33-4.02l13.77-0.98l0.84-6.09c0.14-1.03,0.44-2,0.86-2.9l1.44-16.68c0.46-5.28,4.97-9.27,10.25-9.14    c1.93,0.06,3.46,0.07,4.67,0.06c0.45-2.59,0.84-5.95,1.12-8.63c-1.8-0.1-3.96-0.18-6.48-0.21c-4.42-0.06-8.28-3.02-9.49-7.28    c-0.01-0.05-0.03-0.09-0.04-0.14c-1.74-0.83-3.18-2.14-4.18-3.73c-1.12-1.61-4.35-5.26-8.42-6.86c0.12,2.27-0.58,4.51-2,6.41    c-0.69,0.93-1.54,1.7-2.49,2.3c-0.09,0.34-0.17,0.68-0.22,0.98c-0.8,4.78-4.9,8.25-9.74,8.31c-1.12,0.01-113.17,1.33-208.19,3.04    c-0.02,0-0.05,0-0.07,0l-8.29,0.15c-28.62,0.53-52.78,1.04-71.84,1.53c-2.26,0.07-4.49-0.66-6.3-2.03    c-5.56-4.22-10.52-7.71-14.52-10.33c0.07,0.34,0.14,0.68,0.22,1.01c0.67,2.91,0,5.97-1.81,8.33c-1.82,2.37-4.59,3.8-7.57,3.91    c-17.49,0.62-21.76,1.06-22.76,1.21c-3.84,1.17-7.03,10.09-7.78,15.92c-0.21,1.61-0.8,3.13-1.7,4.44    c-0.55,2.28-1.49,8.87-2.04,21.9c-0.09,2.02-0.78,3.96-1.99,5.58l-3.26,4.34c-3.86,5.13-4.23,6.92-4.12,7.53    c1.26,2.31,1.56,5.01,0.87,7.5c0.07-0.04,0.15-0.08,0.23-0.12C65.06,202.04,66.62,201.68,68.18,201.68z M205.93,228.34    c-1.64,3.49-3.01,7.49-3.69,11.9c-0.77,5.04-0.29,8.61,1.42,10.6c1.68,1.94,5.85,4.19,16.04,4.69    c-6.48-6.16-11.68-14.55-13.39-24.83C206.18,229.92,206.06,229.13,205.93,228.34z M240,217.19c0.48,5.75,1.9,11.32,4.83,14.61    c1.64,1.85,3.21,3.56,4.66,5.13c5.73,6.24,10.28,11.19,11.01,16.56c4.16-1.38,7.26-3.61,9.33-7.19    c4.98-8.63-1.55-22.62-4.94-27.42l-10.57-2.5c-1.58,0.85-3.4,1.29-5.32,1.19C248.95,217.57,245.35,217.37,240,217.19z     M278.5,251.3L278.5,251.3L278.5,251.3z M74.12,155.39L74.12,155.39L74.12,155.39z M474.1,129.8L474.1,129.8L474.1,129.8z     M488.21,123.89c-0.02,0.1-0.05,0.19-0.08,0.29C488.16,124.1,488.18,124,488.21,123.89z M450.3,117.53    c0.01,0.03,0.02,0.06,0.03,0.1L450.3,117.53z"/></g><g><g><path class="st49" d="M428.92,111.16c0,0-3.21-12.21,8.36-10.93s18.61,12.21,18.61,12.21 M451.2,147.16c0,0,18.22,1.29,22.01,0     c3.79-1.29,4.57-23.14,5.3-25.71c0.73-2.57-18.73-2.57-18.73-2.57 M137.07,124.48c0,0-20.57-15.9-28.29-18.19     c-7.71-2.3-2.97,18.19-2.97,18.19"/></g><g><path class="st1" d="M65.71,150.37c0,0,2.57-21.21,15.43-24.43s343.29-7.07,343.29-7.07s1.29-7.71,4.5-7.71     s29.57-0.64,30.86,3.21c1.29,3.86,3.76,9.8,2.79,20.99c-0.97,11.2-38.79,24.21-38.79,24.21l-115.71,3.65"/></g><g><path class="st49" d="M199.76,122.21c1.11,3.24,3.42,6.71,8.2,8.23c10.1,3.21,47.39,2.57,52.53,0c2.34-1.17,4.4-5.26,5.95-9.38     C244.02,121.42,221.28,121.8,199.76,122.21z"/></g><g><path class="st49" d="M431.5,138.8c0,0,6.43-8.36,14.14-8.36s17.36,0,17.36,0l-3.21,37.29l-28.28,0.63"/></g><g><path class="st49" d="M61.74,181.86c0,0,0.75-29.56,3.97-31.49c3.21-1.93,68.79-3.21,68.79-3.21l37.93,5.14l25.71-8.36     l237.21-8.58v32.36l-97.71,16.06"/></g><g><path class="st50" d="M139.25,173.99l168.82-6.26l-3.21,32.77l-17.36,15.45l-16.07-5.79L247,204.37h-16.7     c0,0-3.23,22.5,7.06,34.07c10.29,11.57,18,18,9.64,18.96s-27.57-8.81-30.82-28.35c-3.25-19.54-4.54-40.23-4.54-40.23l-52.39,7.19     l-16-3.21"/></g><g><path class="st50" d="M72.67,209.18c0,0-14.03,8.69-21.79,7.36s-18.6-7.67-17.31-11.56c1.29-3.89,25.07-5.07,25.07-5.07     L72.67,209.18z M407.07,176.95h-58.4l-3.02,1.41l0,0l-35.86,5.32c0,0-2.07,7.06-3.53,13.08l-0.19,0.09c0,0,0,0-10.85,8.12     c-9.14,6.84-23.4,4.92-25.75,4.53c0.02,0,0.02,0,0.04,0.01c3.21,0.64,18.64,25.07,9,41.79c-9.64,16.71-30.86,14.14-53.36,14.33     c-22.5,0.19-36-5.97-32.79-26.91S211,204.98,211,204.98l-34.07-0.61l-33.68,28.29L65.82,361.23c0,0-9.18,22.78,0,34.89     s32.03,18.47,54.53,14.61c22.5-3.86,38.57-4.5,41.92-16.71c3.35-12.21-2.7-25.07-3.02-32.14s-2.25-9.64,7.39-46.65     c9.64-37.01,14.14-36.28,25.24-38.85c11.1-2.57,21.04,1.29,46.76,0c25.71-1.29,41.79-5.14,50.14-10.74s0-9.83,3.86-26.91     c3.86-17.08,16.71-25.35,29.02-33.74c12.3-8.39,98.27-8.32,105.98-12.51c7.71-4.19,9.64-15.51,9.64-15.51H407.07z M269.46,209.51     C269,209.42,269.03,209.43,269.46,209.51L269.46,209.51z"/></g><g><path class="st51" d="M221.05,171.08h31.58l-3.06,36.51c0,0-45.64-2.57-57.21,2.57c-11.57,5.14-17.36,31.72-18.64,36.75     s-14.46,38.46-14.46,38.46s-24.89,83.57-20,110.57c0,0-55.12,3.21-66.58,2.57c-11.46-0.64-20.46-16.71-21.75-41.79     c-1.29-25.07,24.43-77.57,28.29-109.82c3.86-32.25-12.21-34.82-21.86-42.54c-9.64-7.71-2.57-17.37,1.29-22.51     c3.86-5.13,3.86-5.13,3.86-5.13l64.45-5.06c1.81-7.08,7.55-23.9,7.55-23.9l63.64-3.21v23.79v3.46l-64.77,2.19l-4.66,12.03     l51.44-3.51l40.9-0.65V171.08z M435.35,163.23l-3.85,20.46l25.71-1.82l2.57-18.63H435.35z"/></g><g><path class="st52" d="M184,257.41c0,13.67-11.08,24.75-24.75,24.75s-24.75-11.08-24.75-24.75c0-13.67,11.08-24.75,24.75-24.75     S184,243.74,184,257.41z M120.35,215.94c-4.62,0-8.36,3.74-8.36,8.36s3.74,8.36,8.36,8.36s8.36-3.74,8.36-8.36     S124.97,215.94,120.35,215.94z M72.67,175.44l18.6,28.93h88.88v-21.86H148l-4.75-9.24l-66.6,2.81 M304.85,167.09v33.41     c0,0,0.64-14.79,32.79-16.71c32.14-1.92,97.71,0,97.71,0v-20.56"/></g><g><circle class="st1" cx="159.25" cy="257.41" r="12.33"/></g></g></g></svg>